Coordinates
version=1
nRows=16
nColumns=36
inDegrees=yes

Units are S.I. units (second, meters, Newtons, ...)
If the header above contains a line with 'inDegrees', this indicates whether rotational values are in degrees (yes) or radians (no).

endheader
time	pelvis_tilt	pelvis_list	pelvis_rotation	pelvis_tx	pelvis_ty	pelvis_tz	hip_flexion_r	hip_adduction_r	hip_rotation_r	knee_angle_r	knee_angle_r_beta	ankle_angle_r	subtalar_angle_r	mtp_angle_r	hip_flexion_l	hip_adduction_l	hip_rotation_l	knee_angle_l	knee_angle_l_beta	ankle_angle_l	subtalar_angle_l	mtp_angle_l	lumbar_extension	lumbar_bending	lumbar_rotation	arm_flex_r	arm_add_r	arm_rot_r	elbow_flex_r	pro_sup_r	arm_flex_l	arm_add_l	arm_rot_l	elbow_flex_l	pro_sup_l
      1.72000000	     -6.18005523	      3.97630164	     82.49001975	     -0.22274311	      0.95141142	     -0.99354529	     -1.95907238	    -13.18882557	      0.55221899	     55.47991110	      0.96830712	    -37.90360022	    -23.32115906	     -7.49999989	     11.63697833	      8.28222351	    -14.50196465	     20.04526910	      0.34985595	      2.97079513	    -10.38020603	     -7.49999989	    -14.50677455	     -8.01168782	      2.51688868	      2.98179184	     -4.65463035	    -32.45828327	     44.81392815	    104.54287134	     -1.26359719	     -5.59371093	    -40.52276783	     28.12528001	     84.51373087
      1.73000000	     -6.16757037	      3.55637329	     82.14738445	     -0.22349657	      0.95265277	     -1.00484707	      0.54515980	    -13.12261686	      1.08114515	     57.76870938	      1.00825418	    -35.86275027	    -25.29023948	     -7.49999989	     10.92010412	      8.33707891	    -15.27522175	     19.22661607	      0.33556775	      3.42200037	     -9.21699781	     -7.49999989	    -14.21684938	     -8.00543035	      2.51157525	      2.96110322	     -4.59724832	    -32.29086208	     44.55072024	    104.27989664	     -0.69695959	     -5.66656030	    -39.93927438	     28.69953636	     84.71163181
      1.74000000	     -5.96704104	      3.08254128	     81.86273068	     -0.22431895	      0.95362909	     -1.01601600	      3.08848283	    -12.64066801	      1.75493547	     59.89324514	      1.04533433	    -32.68564103	    -27.04926327	     -7.49999988	     10.42770666	      8.16587878	    -15.79900147	     18.85670555	      0.32911160	      4.14730499	     -8.26769549	     -7.49999988	    -13.86378544	     -7.74426981	      2.56810600	      3.00540900	     -4.50669320	    -32.73564323	     44.24573370	    105.64832147	     -0.20104362	     -5.96183748	    -38.47907597	     29.26032440	     86.49857858
      1.75000000	     -5.69560463	      2.84000739	     81.82109487	     -0.22524047	      0.95517858	     -1.02733099	      5.15869320	    -12.12559011	      1.92811362	     61.49717538	      1.07332819	    -29.08491890	    -27.98815820	     -7.49999988	      9.52200627	      7.99954378	    -16.35204190	     18.18473198	      0.31738345	      4.76371646	     -6.89926384	     -7.49999988	    -13.84031074	     -7.42532661	      2.30288417	      2.96260971	     -4.55873924	    -32.35147521	     44.02992276	    104.94308800	      0.39874406	     -6.17722824	    -37.41116130	     29.83341870	     86.26407061
      1.76000000	     -5.53588199	      2.50811997	     81.78886982	     -0.22637745	      0.95639910	     -1.03839277	      7.44840042	    -11.77270732	      1.99280893	     63.02799207	      1.10004598	    -25.15718680	    -28.78354880	     -7.49999988	      8.72570688	      8.00085118	    -16.67049609	     17.41998348	      0.30403607	      5.14114346	     -5.90357138	     -7.49999988	    -13.72469825	     -7.18695448	      2.11330148	      2.80934188	     -4.63338637	    -31.99187450	     43.98098931	    103.25189090	      1.11833753	     -6.38195061	    -36.11632793	     30.38878162	     84.73642013
      1.77000000	     -5.24731222	      2.11845767	     82.04665584	     -0.22769184	      0.95751249	     -1.04930511	      9.65682879	    -11.23708341	      1.77513005	     64.13933094	      1.11944250	    -21.90571161	    -29.62514701	     -7.49999988	      8.03912222	      7.86108352	    -16.75642515	     16.79443573	      0.29311820	      5.63611686	     -4.86997377	     -7.49999988	    -13.62081689	     -6.77369832	      1.71644581	      2.81469637	     -4.49981222	    -32.51390658	     43.82535634	    105.35304306	      1.95399122	     -6.64128900	    -35.22678479	     30.87908267	     86.44677368
      1.78000000	     -5.02016480	      1.98618665	     82.17324985	     -0.22903299	      0.95882140	     -1.06081768	     11.50260657	    -10.86501609	      1.56188766	     64.82406278	      1.13139333	    -18.95704472	    -30.46134030	     -7.49999988	      6.91523838	      7.87842649	    -16.89540611	     15.85909457	      0.27679342	      6.06654100	     -3.79344642	     -7.49999988	    -13.66796688	     -6.44095340	      1.38113291	      2.55975898	     -4.63333866	    -32.03692923	     43.90327325	    103.37885393	      2.66951142	     -6.84623123	    -34.02878384	     31.38494001	     84.96340949
      1.79000000	     -4.70768618	      2.13165167	     82.54458665	     -0.23049030	      0.96057786	     -1.07258443	     12.82202465	    -10.44508524	      1.06931304	     65.06137091	      1.13553514	    -16.24399143	    -31.15176800	     -7.49999988	      5.39708924	      7.89028070	    -16.77752954	     14.78945342	      0.25812466	      6.35985633	     -2.72531712	     -7.49999988	    -14.07868723	     -6.02085775	      0.92829153	      2.22179637	     -4.69101638	    -31.82252947	     44.15210450	    101.81965120	      3.47972169	     -7.07060439	    -32.74021298	     32.02973960	     83.58857391
      1.80000000	     -4.44279335	      1.85523731	     82.79613270	     -0.23214649	      0.96133478	     -1.08372259	     14.62309469	    -10.12702520	      0.42139768	     65.06450298	      1.13558980	    -13.37796505	    -31.78133674	     -7.49999988	      4.49246460	      7.86999770	    -16.68292353	     13.94480839	      0.24338282	      6.50979241	     -2.29991637	     -7.49999988	    -14.02120963	     -5.58530783	      0.59638762	      1.98294931	     -4.84314977	    -31.61568095	     44.20296989	    100.25180472	      4.44909945	     -7.16048820	    -31.92314528	     32.40820199	     82.40668130
      1.81000000	     -4.13943910	      1.56231866	     83.27343576	     -0.23373613	      0.96191838	     -1.09500198	     16.33313674	     -9.75184244	     -0.39081239	     64.79521225	      1.13088979	    -10.99363493	    -32.12750662	     -7.49999988	      3.65682760	      7.72282388	    -16.76280388	     13.25212106	      0.23129315	      7.03285900	     -0.78501246	     -7.49999988	    -13.93561681	     -5.10195946	      0.09543666	      1.85866895	     -4.78810303	    -32.23471409	     44.10995244	    104.24258314	      5.27389315	     -7.55790639	    -30.49944778	     32.86895858	     85.11234781
      1.82000000	     -3.87413871	      1.62535479	     83.82316097	     -0.23560441	      0.96287276	     -1.10655526	     17.49753949	     -9.54195782	     -1.34094340	     64.12803608	      1.11924537	     -8.43356866	    -32.27895817	     -7.49999988	      2.33067359	      7.73860338	    -16.43531743	     12.33083147	      0.21521361	      7.09746175	     -0.11138099	     -7.49999988	    -14.24314460	     -4.66685883	     -0.42751714	      1.47319632	     -4.86479103	    -32.13558508	     44.43495151	    102.12745274	      6.27162225	     -7.65235931	    -29.67197687	     33.37498353	     83.87026456
      1.83000000	     -3.52117864	      1.51337304	     84.39581092	     -0.23726674	      0.96341596	     -1.11793731	     18.78576778	     -9.24642383	     -2.44795456	     63.19799998	      1.10301318	     -6.21790199	    -32.28552512	     -7.49999988	      1.29668563	      7.53902164	    -16.33948387	     11.67118645	      0.20370063	      7.50872715	      1.05225330	     -7.49999988	    -14.31477912	     -4.14178024	     -0.98276515	      1.25301073	     -4.97712241	    -31.97667623	     44.29395182	    100.76187930	      7.32941538	     -7.82038185	    -28.80247405	     33.59673119	     82.96239711
      1.84000000	     -3.24563985	      1.42048118	     84.86205931	     -0.23880650	      0.96377174	     -1.12928463	     20.00193752	     -8.95783103	     -3.37153023	     61.95895350	      1.08138774	     -4.60489657	    -32.21781903	     -7.49999988	      0.31272055	      7.37616552	    -16.58447207	     11.04647521	      0.19279736	      7.68787804	      2.15065626	     -7.49999988	    -14.43806633	     -3.70576686	     -1.43178949	      0.99693946	     -5.02785860	    -32.07301767	     44.38904618	     99.72012486	      8.25564774	     -8.00804354	    -27.79504934	     34.12855526	     82.28739783
      1.85000000	     -3.28438916	      0.91533118	     85.41706961	     -0.24039340	      0.96300679	     -1.14037183	     21.76195787	     -8.98651749	     -4.19104624	     60.74910726	      1.06027194	     -3.34124540	    -32.26300028	     -7.49999988	     -0.10264184	      7.52743808	    -16.30825298	     10.58900926	      0.18481308	      8.01187921	      2.96060371	     -7.49999988	    -14.04085205	     -3.62523550	     -1.94797668	      0.62914356	     -5.07438569	    -31.88037109	     44.31121647	     97.87090113	      9.20003562	     -8.16642914	    -27.01737276	     34.76332994	     81.06978608
      1.86000000	     -2.84849066	      1.23734863	     85.91497322	     -0.24176005	      0.96345890	     -1.15210822	     22.19755269	     -8.54940819	     -5.22538989	     58.81243990	      1.02647072	     -2.21127221	    -31.83921613	     -7.49999987	     -1.63339518	      7.15723425	    -17.00923685	      9.96235071	      0.17387582	      8.48370879	      5.29613694	     -7.49999987	    -14.61981162	     -3.01443862	     -2.30191679	      0.52582652	     -4.78449642	    -33.53828676	     44.61196596	    104.26555591	     10.14698617	     -8.54048322	    -25.88985266	     35.23583046	     86.84395829
      1.87000000	     -2.65356056	      1.23785301	     86.47736446	     -0.24312783	      0.96312582	     -1.16358490	     23.05679845	     -8.36706458	     -6.23956405	     56.81538506	      0.99161554	     -1.57973010	    -31.48781714	     -7.49999987	     -2.71604286	      7.02470178	    -17.07244604	      9.44922622	      0.16492011	      8.89731804	      6.75004459	     -7.49999987	    -14.80152223	     -2.71557800	     -2.71073721	      0.26527715	     -4.76210549	    -33.88546718	     44.58187855	    103.74457286	     11.26216099	     -8.72971651	    -25.25858641	     35.62594514	     89.06394822
